# xmcd CD database file
#
# Track frame offsets:
#	150
#	13977
#	24892
#	41152
#	54321
#	68128
#	86386
#	97852
#	111696
#	130717
#	143106
#	156901
#	175681
#	187905
#
# Disc length: 2693 seconds
#
# Revision: 1
# Processed by: cddbd v1.5.2PL0 Copyright (c) Steve Scherf et al.
# Submitted via: CDex 1.70beta1
#
DISCID=b10a830e
DTITLE=Norah Jones - Feels Like Home (HDCD 2 CD) (Disk 2)
DYEAR=2004
DGENRE=Jazz
TTITLE0=Don't Know Why
TTITLE1=Seven Years
TTITLE2=Cold Cold Heart
TTITLE3=Feelin' The Same Way
TTITLE4=Come Away With Me
TTITLE5=Shoot The Moon
TTITLE6=Turn Me On
TTITLE7=Lonestar
TTITLE8=I've Got To See You Again
TTITLE9=Painter Song
TTITLE10=One Flight Down
TTITLE11=Nightingale
TTITLE12=The Long Day Is Over
TTITLE13=The Nearnest Of You
EXTD=YEAR: 2004
EXTT0=
EXTT1=
EXTT2=
EXTT3=
EXTT4=
EXTT5=
EXTT6=
EXTT7=
EXTT8=
EXTT9=
EXTT10=
EXTT11=
EXTT12=
EXTT13=
PLAYORDER=
